# xmcd
#
# Track frame offsets:
#	183
#	12805
#	22955
#	32770
#	45533
#	56458
#	70815
#	82363
#	94908
#	111835
#	123163
#	138733
#	149253
#	164578
#	176518
#	190498
#
# Disc length: 2714
#
# Revision: 1
# Processed by: cddbd v1.5.2PL0 Copyright (c) Steve Scherf et al.
# Submitted via: Broken Cross Disk Manager 3.94.2201
#
DISCID=e10a9810
DTITLE=Carl Perkin - This Old House
DYEAR=1993
DGENRE=R
TTITLE0=Disciple in Blue Suede Shoes
TTITLE1=Daddy Sang Bass
TTITLE2=This Old House
TTITLE3=We did It In '54
TTITLE4=Dixie Fried
TTITLE5=Redneck
TTITLE6=Born To Boogie
TTITLE7=Take Me Back
TTITLE8=Sweeter Than Candy
TTITLE9=Sing A Song
TTITLE10=21
TTITLE11=What Am I Living for
TTITLE12=I Don't Want To Fall In Love Angain
TTITLE13=Matchbox
TTITLE14=Georgia Court Room
TTITLE15=Boppin'The Blue
EXTD=
EXTT0=
EXTT1=
EXTT2=
EXTT3=
EXTT4=
EXTT5=
EXTT6=
EXTT7=
EXTT8=
EXTT9=
EXTT10=
EXTT11=
EXTT12=
EXTT13=
EXTT14=
EXTT15=
PLAYORDER=
